<svg width="212" height="44" viewBox="0 0 212 44" fill="none" xmlns="http://www.w3.org/2000/svg">
<path d="M13.075 21.75C13.5083 21.75 13.8833 21.6 14.2 21.3C14.5167 21 14.6833 20.6333 14.7 20.2V13.825H6.825V20.25C6.825 22.25 6.31667 23.8417 5.3 25.025C4.5 25.9583 3.35 26.425 1.85 26.425C1.36667 26.425 0.841667 26.3667 0.275 26.25L0.225 26C1.45833 25.4833 2.25 24.7167 2.6 23.7C2.91667 22.8333 3.075 21.6833 3.075 20.25V6.3C3.05833 5.86667 2.89167 5.5 2.575 5.2C2.275 4.9 1.90833 4.75 1.475 4.75H1.15V4.5H8.75V4.75H8.425C7.825 4.75 7.375 5 7.075 5.5C6.925 5.73333 6.84167 6 6.825 6.3V12.75H14.7V6.75C14.7 4.8 15.3083 3.25 16.525 2.1C17.4917 1.15 18.7083 0.674999 20.175 0.674999C20.5083 0.674999 20.8583 0.699999 21.225 0.749999L21.275 0.999999C20.0583 1.43333 19.2667 2.2 18.9 3.3C18.6 4.2 18.4417 5.35 18.425 6.75V20.175C18.4417 20.775 18.7083 21.225 19.225 21.525C19.475 21.675 19.75 21.75 20.05 21.75H20.35V22H12.775V21.75H13.075ZM39.9832 21.75H40.2082V22H32.2332V21.75H32.4582C32.8249 21.75 33.0915 21.6417 33.2582 21.425C33.4415 21.1917 33.5332 20.975 33.5332 20.775C33.5332 20.575 33.4915 20.375 33.4082 20.175L32.1832 17.1H26.3332L25.0332 20.175C24.9499 20.3917 24.9082 20.6 24.9082 20.8C24.9082 20.9833 24.9915 21.1917 25.1582 21.425C25.3415 21.6417 25.6249 21.75 26.0082 21.75H26.2082V22H20.8582V21.75H21.0832C21.4665 21.75 21.8499 21.6333 22.2332 21.4C22.6165 21.1667 22.9332 20.8167 23.1832 20.35L28.9582 7.275C29.7415 5.625 30.1582 4.53333 30.2082 4H30.4332L37.8582 20.3C38.1082 20.7833 38.4249 21.15 38.8082 21.4C39.1915 21.6333 39.5832 21.75 39.9832 21.75ZM26.7582 16.05H31.7582L29.3332 9.9L26.7582 16.05ZM47.3787 5.6H46.3037C46.2704 5.6 46.2454 5.6 46.2287 5.6V20.175C46.2454 20.7917 46.512 21.25 47.0287 21.55C47.2787 21.6833 47.5454 21.75 47.8287 21.75H48.1537V22H40.5537V21.75H40.8787C41.4787 21.75 41.937 21.4917 42.2537 20.975C42.387 20.7417 42.462 20.4833 42.4787 20.2V6.325C42.462 5.89167 42.2954 5.525 41.9787 5.225C41.6787 4.90833 41.312 4.75 40.8787 4.75H40.5537V4.5H49.1287C50.7454 4.5 52.112 4.85 53.2287 5.55C53.7954 5.9 54.2454 6.39167 54.5787 7.025C54.912 7.64167 55.0787 8.35 55.0787 9.15C55.0787 9.93333 54.937 10.6583 54.6537 11.325C54.387 11.9917 53.9287 12.575 53.2787 13.075C52.6454 13.575 51.8787 13.875 50.9787 13.975C51.9454 14.2917 52.7954 15.025 53.5287 16.175C55.3287 19.0583 56.662 20.775 57.5287 21.325C57.962 21.5917 58.5037 21.7333 59.1537 21.75V22H56.7037C55.287 22 54.1037 21.8083 53.1537 21.425C52.2037 21.025 51.4287 20.35 50.8287 19.4C50.5287 18.9167 50.1454 18.1917 49.6787 17.225C49.212 16.2417 48.9037 15.5417 48.7537 15.125C48.3037 14.125 47.737 13.5667 47.0537 13.45V13.2H47.8287C48.5787 13.2 49.237 12.975 49.8037 12.525C50.387 12.075 50.7787 11.3417 50.9787 10.325C51.0454 9.975 51.0787 9.7 51.0787 9.5C51.0787 8.13333 50.8037 7.15 50.2537 6.55C49.7037 5.93333 48.9954 5.61667 48.1287 5.6C47.962 5.6 47.712 5.6 47.3787 5.6ZM59.1631 21.75C59.5964 21.75 59.9631 21.6 60.2631 21.3C60.5798 20.9833 60.7464 20.6083 60.7631 20.175V6.325C60.7464 5.89167 60.5798 5.525 60.2631 5.225C59.9631 4.90833 59.5964 4.75 59.1631 4.75H58.8381V4.5H66.4381L66.4131 4.75H66.1131C65.6798 4.75 65.3048 4.90833 64.9881 5.225C64.6714 5.525 64.5131 5.89167 64.5131 6.325V20.925H67.7881C69.0048 20.925 70.0214 20.575 70.8381 19.875C71.6714 19.175 72.2881 18.1833 72.6881 16.9H72.9381L71.7881 22H58.8381V21.75H59.1631ZM74.4219 21.75C74.8552 21.75 75.2219 21.6 75.5219 21.3C75.8385 20.9833 76.0052 20.6083 76.0219 20.175V6.25C75.9719 5.66667 75.6969 5.23333 75.1969 4.95C74.9469 4.81667 74.6885 4.75 74.4219 4.75H74.0969V4.5H83.6719C84.1885 4.5 84.7552 4.45 85.3719 4.35C85.9885 4.25 86.4219 4.15 86.6719 4.05V8.425H86.4219V8.125C86.4219 7.375 86.1969 6.775 85.7469 6.325C85.3135 5.85833 84.7219 5.60833 83.9719 5.575H79.7719V12.85H83.0719C83.6885 12.8333 84.1969 12.625 84.5969 12.225C84.9969 11.8083 85.1969 11.3 85.1969 10.7V10.475H85.4469V16.25H85.1969V16.05C85.1969 15.2167 84.8635 14.6 84.1969 14.2C83.8635 14.0167 83.4969 13.9167 83.0969 13.9H79.7719V20.925H83.0469C84.2635 20.925 85.2802 20.575 86.0969 19.875C86.9302 19.175 87.5469 18.1833 87.9469 16.9H88.1969L87.0469 22H74.0969V21.75H74.4219ZM107.193 4.75H106.843C106.343 4.75 105.868 4.89167 105.418 5.175C104.968 5.45833 104.61 5.8 104.343 6.2L99.4184 14.05V20.175C99.4184 20.6083 99.5767 20.9833 99.8934 21.3C100.21 21.6 100.585 21.75 101.018 21.75H101.318L101.343 22H93.7434V21.75H94.0684C94.5017 21.75 94.8684 21.6 95.1684 21.3C95.485 21 95.6517 20.6333 95.6684 20.2V14.025L90.8934 6.175C90.6434 5.775 90.285 5.44167 89.8184 5.175C89.3684 4.89167 88.9017 4.75 88.4184 4.75H88.0684V4.5H96.3434V4.75H96.0184C95.6517 4.75 95.3684 4.91667 95.1684 5.25C95.0684 5.43333 95.0184 5.61667 95.0184 5.8C95.0184 5.96667 95.06 6.13333 95.1434 6.3L98.7184 12.8L102.418 6.3C102.518 6.13333 102.568 5.96667 102.568 5.8C102.568 5.61667 102.51 5.44167 102.393 5.275C102.193 4.925 101.91 4.75 101.543 4.75H101.243V4.5H107.193V4.75ZM114.972 14.9C114.305 15.9667 113.972 17.0583 113.972 18.175C113.972 19.3917 114.414 20.5 115.297 21.5C115.78 22.0667 116.389 22.5083 117.122 22.825C117.872 23.1417 118.689 23.3 119.572 23.3C120.455 23.3 121.247 23.1333 121.947 22.8C123.347 22.1167 124.047 21 124.047 19.45C124.047 18.8667 123.847 18.25 123.447 17.6C123.064 16.95 122.48 16.3667 121.697 15.85L117.447 13C115.797 11.9667 114.972 10.6333 114.972 9C114.972 8.83333 114.98 8.66667 114.997 8.5C115.097 7.21667 115.605 6.175 116.522 5.375C117.455 4.55833 118.697 4.15 120.247 4.15C121.197 4.15 122.347 4.23333 123.697 4.4H125.247L124.922 8.075H124.697C124.68 7.20833 124.347 6.51667 123.697 6C123.047 5.46667 122.189 5.2 121.122 5.2C119.822 5.2 118.88 5.59167 118.297 6.375C118.014 6.775 117.872 7.20833 117.872 7.675C117.872 8.14167 118.014 8.54167 118.297 8.875C118.58 9.19167 119.03 9.54167 119.647 9.925L124.322 12.975C125.272 13.5917 126.014 14.3167 126.547 15.15C127.18 16.1333 127.497 17.1417 127.497 18.175C127.497 18.8417 127.355 19.55 127.072 20.3C126.805 21.0333 126.355 21.7167 125.722 22.35C125.105 22.9833 124.305 23.5 123.322 23.9C122.339 24.3 121.247 24.5 120.047 24.5C118.864 24.5 117.789 24.2917 116.822 23.875C115.039 23.125 113.905 21.8167 113.422 19.95C113.322 19.55 113.272 19.1333 113.272 18.7C113.272 17.3 113.764 15.975 114.747 14.725L114.972 14.9ZM138.423 5.525V20.2C138.44 20.6333 138.598 21 138.898 21.3C139.215 21.6 139.59 21.75 140.023 21.75H140.323L140.348 22H132.748V21.75H133.073C133.49 21.75 133.848 21.6 134.148 21.3C134.465 21 134.64 20.6417 134.673 20.225V5.525H131.298C130.532 5.54167 129.923 5.78333 129.473 6.25C129.023 6.71667 128.798 7.325 128.798 8.075V8.375H128.548V4.025C128.782 4.125 129.198 4.225 129.798 4.325C130.415 4.425 130.982 4.475 131.498 4.475H141.573C142.39 4.45833 143.057 4.39167 143.573 4.275C144.09 4.15833 144.407 4.075 144.523 4.025V8.375H144.273V8.075C144.273 7.325 144.048 6.71667 143.598 6.25C143.148 5.78333 142.54 5.54167 141.773 5.525H138.423ZM152.799 5.6H151.724C151.69 5.6 151.665 5.6 151.649 5.6V20.175C151.665 20.7917 151.932 21.25 152.449 21.55C152.699 21.6833 152.965 21.75 153.249 21.75H153.574V22H145.974V21.75H146.299C146.899 21.75 147.357 21.4917 147.674 20.975C147.807 20.7417 147.882 20.4833 147.899 20.2V6.325C147.882 5.89167 147.715 5.525 147.399 5.225C147.099 4.90833 146.732 4.75 146.299 4.75H145.974V4.5H154.549C156.165 4.5 157.532 4.85 158.649 5.55C159.215 5.9 159.665 6.39167 159.999 7.025C160.332 7.64167 160.499 8.35 160.499 9.15C160.499 9.93333 160.357 10.6583 160.074 11.325C159.807 11.9917 159.349 12.575 158.699 13.075C158.065 13.575 157.299 13.875 156.399 13.975C157.365 14.2917 158.215 15.025 158.949 16.175C160.749 19.0583 162.082 20.775 162.949 21.325C163.382 21.5917 163.924 21.7333 164.574 21.75V22H162.124C160.707 22 159.524 21.8083 158.574 21.425C157.624 21.025 156.849 20.35 156.249 19.4C155.949 18.9167 155.565 18.1917 155.099 17.225C154.632 16.2417 154.324 15.5417 154.174 15.125C153.724 14.125 153.157 13.5667 152.474 13.45V13.2H153.249C153.999 13.2 154.657 12.975 155.224 12.525C155.807 12.075 156.199 11.3417 156.399 10.325C156.465 9.975 156.499 9.7 156.499 9.5C156.499 8.13333 156.224 7.15 155.674 6.55C155.124 5.93333 154.415 5.61667 153.549 5.6C153.382 5.6 153.132 5.6 152.799 5.6ZM164.583 21.75C165.016 21.75 165.383 21.6 165.683 21.3C166 20.9833 166.166 20.6083 166.183 20.175V6.25C166.133 5.66667 165.858 5.23333 165.358 4.95C165.108 4.81667 164.85 4.75 164.583 4.75H164.258V4.5H173.833C174.35 4.5 174.916 4.45 175.533 4.35C176.15 4.25 176.583 4.15 176.833 4.05V8.425H176.583V8.125C176.583 7.375 176.358 6.775 175.908 6.325C175.475 5.85833 174.883 5.60833 174.133 5.575H169.933V12.85H173.233C173.85 12.8333 174.358 12.625 174.758 12.225C175.158 11.8083 175.358 11.3 175.358 10.7V10.475H175.608V16.25H175.358V16.05C175.358 15.2167 175.025 14.6 174.358 14.2C174.025 14.0167 173.658 13.9167 173.258 13.9H169.933V20.925H173.208C174.425 20.925 175.441 20.575 176.258 19.875C177.091 19.175 177.708 18.1833 178.108 16.9H178.358L177.208 22H164.258V21.75H164.583ZM180.257 21.75C180.69 21.75 181.057 21.6 181.357 21.3C181.674 20.9833 181.84 20.6083 181.857 20.175V6.25C181.807 5.66667 181.532 5.23333 181.032 4.95C180.782 4.81667 180.524 4.75 180.257 4.75H179.932V4.5H189.507C190.024 4.5 190.59 4.45 191.207 4.35C191.824 4.25 192.257 4.15 192.507 4.05V8.425H192.257V8.125C192.257 7.375 192.032 6.775 191.582 6.325C191.149 5.85833 190.557 5.60833 189.807 5.575H185.607V12.85H188.907C189.524 12.8333 190.032 12.625 190.432 12.225C190.832 11.8083 191.032 11.3 191.032 10.7V10.475H191.282V16.25H191.032V16.05C191.032 15.2167 190.699 14.6 190.032 14.2C189.699 14.0167 189.332 13.9167 188.932 13.9H185.607V20.925H188.882C190.099 20.925 191.115 20.575 191.932 19.875C192.765 19.175 193.382 18.1833 193.782 16.9H194.032L192.882 22H179.932V21.75H180.257ZM204.878 5.525V20.2C204.895 20.6333 205.053 21 205.353 21.3C205.67 21.6 206.045 21.75 206.478 21.75H206.778L206.803 22H199.203V21.75H199.528C199.945 21.75 200.303 21.6 200.603 21.3C200.92 21 201.095 20.6417 201.128 20.225V5.525H197.753C196.987 5.54167 196.378 5.78333 195.928 6.25C195.478 6.71667 195.253 7.325 195.253 8.075V8.375H195.003V4.025C195.237 4.125 195.653 4.225 196.253 4.325C196.87 4.425 197.437 4.475 197.953 4.475H208.028C208.845 4.45833 209.512 4.39167 210.028 4.275C210.545 4.15833 210.862 4.075 210.978 4.025V8.375H210.728V8.075C210.728 7.325 210.503 6.71667 210.053 6.25C209.603 5.78333 208.995 5.54167 208.228 5.525H204.878Z" fill="black"/>
<path d="M6.886 32.188C7.46467 32.188 7.98733 32.314 8.454 32.566C8.92067 32.8087 9.28467 33.1773 9.546 33.672C9.81667 34.1667 9.952 34.7687 9.952 35.478V40H8.692V35.66C8.692 34.8947 8.50067 34.3113 8.118 33.91C7.73533 33.4993 7.21267 33.294 6.55 33.294C5.878 33.294 5.34133 33.504 4.94 33.924C4.548 34.344 4.352 34.9553 4.352 35.758V40H3.078V29.64H4.352V33.42C4.604 33.028 4.94933 32.7247 5.388 32.51C5.836 32.2953 6.33533 32.188 6.886 32.188ZM11.5571 36.136C11.5571 35.352 11.7157 34.666 12.0331 34.078C12.3504 33.4807 12.7844 33.0187 13.3351 32.692C13.8951 32.3653 14.5157 32.202 15.1971 32.202C15.8691 32.202 16.4524 32.3467 16.9471 32.636C17.4417 32.9253 17.8104 33.2893 18.0531 33.728V32.328H19.3411V40H18.0531V38.572C17.8011 39.02 17.4231 39.3933 16.9191 39.692C16.4244 39.9813 15.8457 40.126 15.1831 40.126C14.5017 40.126 13.8857 39.958 13.3351 39.622C12.7844 39.286 12.3504 38.8147 12.0331 38.208C11.7157 37.6013 11.5571 36.9107 11.5571 36.136ZM18.0531 36.15C18.0531 35.5713 17.9364 35.0673 17.7031 34.638C17.4697 34.2087 17.1524 33.882 16.7511 33.658C16.3591 33.4247 15.9251 33.308 15.4491 33.308C14.9731 33.308 14.5391 33.42 14.1471 33.644C13.7551 33.868 13.4424 34.1947 13.2091 34.624C12.9757 35.0533 12.8591 35.5573 12.8591 36.136C12.8591 36.724 12.9757 37.2373 13.2091 37.676C13.4424 38.1053 13.7551 38.4367 14.1471 38.67C14.5391 38.894 14.9731 39.006 15.4491 39.006C15.9251 39.006 16.3591 38.894 16.7511 38.67C17.1524 38.4367 17.4697 38.1053 17.7031 37.676C17.9364 37.2373 18.0531 36.7287 18.0531 36.15ZM22.152 31.082C21.9093 31.082 21.704 30.998 21.536 30.83C21.368 30.662 21.284 30.4567 21.284 30.214C21.284 29.9713 21.368 29.766 21.536 29.598C21.704 29.43 21.9093 29.346 22.152 29.346C22.3853 29.346 22.5813 29.43 22.74 29.598C22.908 29.766 22.992 29.9713 22.992 30.214C22.992 30.4567 22.908 30.662 22.74 30.83C22.5813 30.998 22.3853 31.082 22.152 31.082ZM22.768 32.328V40H21.494V32.328H22.768ZM26.2133 33.574C26.4373 33.1353 26.7547 32.7947 27.1653 32.552C27.5853 32.3093 28.094 32.188 28.6913 32.188V33.504H28.3553C26.9273 33.504 26.2133 34.2787 26.2133 35.828V40H24.9393V32.328H26.2133V33.574ZM35.482 34.33V35.408H29.896V34.33H35.482ZM39.4269 33.378V37.9C39.4269 38.2733 39.5063 38.5393 39.6649 38.698C39.8236 38.8473 40.0989 38.922 40.4909 38.922H41.4289V40H40.2809C39.5716 40 39.0396 39.8367 38.6849 39.51C38.3303 39.1833 38.1529 38.6467 38.1529 37.9V33.378H37.1589V32.328H38.1529V30.396H39.4269V32.328H41.4289V33.378H39.4269ZM44.2465 33.574C44.4705 33.1353 44.7879 32.7947 45.1985 32.552C45.6185 32.3093 46.1272 32.188 46.7245 32.188V33.504H46.3885C44.9605 33.504 44.2465 34.2787 44.2465 35.828V40H42.9725V32.328H44.2465V33.574ZM47.7192 36.136C47.7192 35.352 47.8779 34.666 48.1952 34.078C48.5125 33.4807 48.9465 33.0187 49.4972 32.692C50.0572 32.3653 50.6779 32.202 51.3592 32.202C52.0312 32.202 52.6145 32.3467 53.1092 32.636C53.6039 32.9253 53.9725 33.2893 54.2152 33.728V32.328H55.5032V40H54.2152V38.572C53.9632 39.02 53.5852 39.3933 53.0812 39.692C52.5865 39.9813 52.0079 40.126 51.3452 40.126C50.6639 40.126 50.0479 39.958 49.4972 39.622C48.9465 39.286 48.5125 38.8147 48.1952 38.208C47.8779 37.6013 47.7192 36.9107 47.7192 36.136ZM54.2152 36.15C54.2152 35.5713 54.0985 35.0673 53.8652 34.638C53.6319 34.2087 53.3145 33.882 52.9132 33.658C52.5212 33.4247 52.0872 33.308 51.6112 33.308C51.1352 33.308 50.7012 33.42 50.3092 33.644C49.9172 33.868 49.6045 34.1947 49.3712 34.624C49.1379 35.0533 49.0212 35.5573 49.0212 36.136C49.0212 36.724 49.1379 37.2373 49.3712 37.676C49.6045 38.1053 49.9172 38.4367 50.3092 38.67C50.7012 38.894 51.1352 39.006 51.6112 39.006C52.0872 39.006 52.5212 38.894 52.9132 38.67C53.3145 38.4367 53.6319 38.1053 53.8652 37.676C54.0985 37.2373 54.2152 36.7287 54.2152 36.15ZM61.3941 32.188C62.3275 32.188 63.0835 32.4727 63.6621 33.042C64.2408 33.602 64.5301 34.414 64.5301 35.478V40H63.2701V35.66C63.2701 34.8947 63.0788 34.3113 62.6961 33.91C62.3135 33.4993 61.7908 33.294 61.1281 33.294C60.4561 33.294 59.9195 33.504 59.5181 33.924C59.1261 34.344 58.9301 34.9553 58.9301 35.758V40H57.6561V32.328H58.9301V33.42C59.1821 33.028 59.5228 32.7247 59.9521 32.51C60.3908 32.2953 60.8715 32.188 61.3941 32.188ZM69.3272 40.126C68.7392 40.126 68.2119 40.028 67.7452 39.832C67.2785 39.6267 66.9099 39.3467 66.6392 38.992C66.3685 38.628 66.2192 38.2127 66.1912 37.746H67.5072C67.5445 38.1287 67.7219 38.4413 68.0392 38.684C68.3659 38.9267 68.7905 39.048 69.3132 39.048C69.7985 39.048 70.1812 38.9407 70.4612 38.726C70.7412 38.5113 70.8812 38.2407 70.8812 37.914C70.8812 37.578 70.7319 37.3307 70.4332 37.172C70.1345 37.004 69.6725 36.8407 69.0472 36.682C68.4779 36.5327 68.0112 36.3833 67.6472 36.234C67.2925 36.0753 66.9845 35.8467 66.7232 35.548C66.4712 35.24 66.3452 34.8387 66.3452 34.344C66.3452 33.952 66.4619 33.5927 66.6952 33.266C66.9285 32.9393 67.2599 32.6827 67.6892 32.496C68.1185 32.3 68.6085 32.202 69.1592 32.202C70.0085 32.202 70.6945 32.4167 71.2172 32.846C71.7399 33.2753 72.0199 33.8633 72.0572 34.61H70.7832C70.7552 34.2087 70.5919 33.8867 70.2932 33.644C70.0039 33.4013 69.6119 33.28 69.1172 33.28C68.6599 33.28 68.2959 33.378 68.0252 33.574C67.7545 33.77 67.6192 34.0267 67.6192 34.344C67.6192 34.596 67.6985 34.806 67.8572 34.974C68.0252 35.1327 68.2305 35.2633 68.4732 35.366C68.7252 35.4593 69.0705 35.5667 69.5092 35.688C70.0599 35.8373 70.5079 35.9867 70.8532 36.136C71.1985 36.276 71.4925 36.4907 71.7352 36.78C71.9872 37.0693 72.1179 37.4473 72.1272 37.914C72.1272 38.334 72.0105 38.712 71.7772 39.048C71.5439 39.384 71.2125 39.65 70.7832 39.846C70.3632 40.0327 69.8779 40.126 69.3272 40.126ZM75.1997 33.742C75.4517 33.3033 75.825 32.9393 76.3197 32.65C76.8237 32.3513 77.407 32.202 78.0697 32.202C78.751 32.202 79.367 32.3653 79.9177 32.692C80.4777 33.0187 80.9163 33.4807 81.2337 34.078C81.551 34.666 81.7097 35.352 81.7097 36.136C81.7097 36.9107 81.551 37.6013 81.2337 38.208C80.9163 38.8147 80.4777 39.286 79.9177 39.622C79.367 39.958 78.751 40.126 78.0697 40.126C77.4163 40.126 76.8377 39.9813 76.3337 39.692C75.839 39.3933 75.461 39.0247 75.1997 38.586V43.64H73.9257V32.328H75.1997V33.742ZM80.4077 36.136C80.4077 35.5573 80.291 35.0533 80.0577 34.624C79.8243 34.1947 79.507 33.868 79.1057 33.644C78.7137 33.42 78.2797 33.308 77.8037 33.308C77.337 33.308 76.903 33.4247 76.5017 33.658C76.1097 33.882 75.7923 34.2133 75.5497 34.652C75.3163 35.0813 75.1997 35.5807 75.1997 36.15C75.1997 36.7287 75.3163 37.2373 75.5497 37.676C75.7923 38.1053 76.1097 38.4367 76.5017 38.67C76.903 38.894 77.337 39.006 77.8037 39.006C78.2797 39.006 78.7137 38.894 79.1057 38.67C79.507 38.4367 79.8243 38.1053 80.0577 37.676C80.291 37.2373 80.4077 36.724 80.4077 36.136ZM84.6606 29.64V40H83.3866V29.64H84.6606ZM86.3559 36.136C86.3559 35.352 86.5146 34.666 86.8319 34.078C87.1492 33.4807 87.5832 33.0187 88.1339 32.692C88.6939 32.3653 89.3146 32.202 89.9959 32.202C90.6679 32.202 91.2512 32.3467 91.7459 32.636C92.2406 32.9253 92.6092 33.2893 92.8519 33.728V32.328H94.1399V40H92.8519V38.572C92.5999 39.02 92.2219 39.3933 91.7179 39.692C91.2232 39.9813 90.6446 40.126 89.9819 40.126C89.3006 40.126 88.6846 39.958 88.1339 39.622C87.5832 39.286 87.1492 38.8147 86.8319 38.208C86.5146 37.6013 86.3559 36.9107 86.3559 36.136ZM92.8519 36.15C92.8519 35.5713 92.7352 35.0673 92.5019 34.638C92.2686 34.2087 91.9512 33.882 91.5499 33.658C91.1579 33.4247 90.7239 33.308 90.2479 33.308C89.7719 33.308 89.3379 33.42 88.9459 33.644C88.5539 33.868 88.2412 34.1947 88.0079 34.624C87.7746 35.0533 87.6579 35.5573 87.6579 36.136C87.6579 36.724 87.7746 37.2373 88.0079 37.676C88.2412 38.1053 88.5539 38.4367 88.9459 38.67C89.3379 38.894 89.7719 39.006 90.2479 39.006C90.7239 39.006 91.1579 38.894 91.5499 38.67C91.9512 38.4367 92.2686 38.1053 92.5019 37.676C92.7352 37.2373 92.8519 36.7287 92.8519 36.15ZM100.031 32.188C100.964 32.188 101.72 32.4727 102.299 33.042C102.878 33.602 103.167 34.414 103.167 35.478V40H101.907V35.66C101.907 34.8947 101.716 34.3113 101.333 33.91C100.95 33.4993 100.428 33.294 99.7648 33.294C99.0928 33.294 98.5562 33.504 98.1548 33.924C97.7628 34.344 97.5668 34.9553 97.5668 35.758V40H96.2928V32.328H97.5668V33.42C97.8188 33.028 98.1595 32.7247 98.5888 32.51C99.0275 32.2953 99.5082 32.188 100.031 32.188ZM106.802 33.378V37.9C106.802 38.2733 106.881 38.5393 107.04 38.698C107.199 38.8473 107.474 38.922 107.866 38.922H108.804V40H107.656C106.947 40 106.415 39.8367 106.06 39.51C105.705 39.1833 105.528 38.6467 105.528 37.9V33.378H104.534V32.328H105.528V30.396H106.802V32.328H108.804V33.378H106.802ZM113.064 40.126C112.476 40.126 111.948 40.028 111.482 39.832C111.015 39.6267 110.646 39.3467 110.376 38.992C110.105 38.628 109.956 38.2127 109.928 37.746H111.244C111.281 38.1287 111.458 38.4413 111.776 38.684C112.102 38.9267 112.527 39.048 113.05 39.048C113.535 39.048 113.918 38.9407 114.198 38.726C114.478 38.5113 114.618 38.2407 114.618 37.914C114.618 37.578 114.468 37.3307 114.17 37.172C113.871 37.004 113.409 36.8407 112.784 36.682C112.214 36.5327 111.748 36.3833 111.384 36.234C111.029 36.0753 110.721 35.8467 110.46 35.548C110.208 35.24 110.082 34.8387 110.082 34.344C110.082 33.952 110.198 33.5927 110.432 33.266C110.665 32.9393 110.996 32.6827 111.426 32.496C111.855 32.3 112.345 32.202 112.896 32.202C113.745 32.202 114.431 32.4167 114.954 32.846C115.476 33.2753 115.756 33.8633 115.794 34.61H114.52C114.492 34.2087 114.328 33.8867 114.03 33.644C113.74 33.4013 113.348 33.28 112.854 33.28C112.396 33.28 112.032 33.378 111.762 33.574C111.491 33.77 111.356 34.0267 111.356 34.344C111.356 34.596 111.435 34.806 111.594 34.974C111.762 35.1327 111.967 35.2633 112.21 35.366C112.462 35.4593 112.807 35.5667 113.246 35.688C113.796 35.8373 114.244 35.9867 114.59 36.136C114.935 36.276 115.229 36.4907 115.472 36.78C115.724 37.0693 115.854 37.4473 115.864 37.914C115.864 38.334 115.747 38.712 115.514 39.048C115.28 39.384 114.949 39.65 114.52 39.846C114.1 40.0327 113.614 40.126 113.064 40.126ZM122.982 34.33V35.408H117.396V34.33H122.982ZM132.177 32.328V40H130.903V38.866C130.66 39.258 130.32 39.566 129.881 39.79C129.452 40.0047 128.976 40.112 128.453 40.112C127.856 40.112 127.319 39.9907 126.843 39.748C126.367 39.496 125.989 39.1227 125.709 38.628C125.438 38.1333 125.303 37.5313 125.303 36.822V32.328H126.563V36.654C126.563 37.41 126.754 37.9933 127.137 38.404C127.52 38.8053 128.042 39.006 128.705 39.006C129.386 39.006 129.923 38.796 130.315 38.376C130.707 37.956 130.903 37.3447 130.903 36.542V32.328H132.177ZM138.612 40L135.602 36.612V40H134.328V29.64H135.602V35.73L138.556 32.328H140.334L136.722 36.15L140.348 40H138.612ZM141.939 40.084C141.696 40.084 141.491 40 141.323 39.832C141.155 39.664 141.071 39.4587 141.071 39.216C141.071 38.9733 141.155 38.768 141.323 38.6C141.491 38.432 141.696 38.348 141.939 38.348C142.172 38.348 142.368 38.432 142.527 38.6C142.695 38.768 142.779 38.9733 142.779 39.216C142.779 39.4587 142.695 39.664 142.527 39.832C142.368 40 142.172 40.084 141.939 40.084ZM143.997 36.15C143.997 35.3567 144.155 34.666 144.473 34.078C144.79 33.4807 145.229 33.0187 145.789 32.692C146.358 32.3653 147.007 32.202 147.735 32.202C148.677 32.202 149.452 32.4307 150.059 32.888C150.675 33.3453 151.081 33.98 151.277 34.792H149.905C149.774 34.3253 149.517 33.9567 149.135 33.686C148.761 33.4153 148.295 33.28 147.735 33.28C147.007 33.28 146.419 33.532 145.971 34.036C145.523 34.5307 145.299 35.2353 145.299 36.15C145.299 37.074 145.523 37.788 145.971 38.292C146.419 38.796 147.007 39.048 147.735 39.048C148.295 39.048 148.761 38.9173 149.135 38.656C149.508 38.3947 149.765 38.0213 149.905 37.536H151.277C151.071 38.32 150.661 38.95 150.045 39.426C149.429 39.8927 148.659 40.126 147.735 40.126C147.007 40.126 146.358 39.9627 145.789 39.636C145.229 39.3093 144.79 38.8473 144.473 38.25C144.155 37.6527 143.997 36.9527 143.997 36.15ZM156.322 40.126C155.604 40.126 154.95 39.9627 154.362 39.636C153.784 39.3093 153.326 38.8473 152.99 38.25C152.664 37.6433 152.5 36.9433 152.5 36.15C152.5 35.366 152.668 34.6753 153.004 34.078C153.35 33.4713 153.816 33.0093 154.404 32.692C154.992 32.3653 155.65 32.202 156.378 32.202C157.106 32.202 157.764 32.3653 158.352 32.692C158.94 33.0093 159.402 33.4667 159.738 34.064C160.084 34.6613 160.256 35.3567 160.256 36.15C160.256 36.9433 160.079 37.6433 159.724 38.25C159.379 38.8473 158.908 39.3093 158.31 39.636C157.713 39.9627 157.05 40.126 156.322 40.126ZM156.322 39.006C156.78 39.006 157.209 38.8987 157.61 38.684C158.012 38.4693 158.334 38.1473 158.576 37.718C158.828 37.2887 158.954 36.766 158.954 36.15C158.954 35.534 158.833 35.0113 158.59 34.582C158.348 34.1527 158.03 33.8353 157.638 33.63C157.246 33.4153 156.822 33.308 156.364 33.308C155.898 33.308 155.468 33.4153 155.076 33.63C154.694 33.8353 154.386 34.1527 154.152 34.582C153.919 35.0113 153.802 35.534 153.802 36.15C153.802 36.7753 153.914 37.3027 154.138 37.732C154.372 38.1613 154.68 38.4833 155.062 38.698C155.445 38.9033 155.865 39.006 156.322 39.006ZM171.158 32.188C171.755 32.188 172.287 32.314 172.754 32.566C173.22 32.8087 173.589 33.1773 173.86 33.672C174.13 34.1667 174.266 34.7687 174.266 35.478V40H173.006V35.66C173.006 34.8947 172.814 34.3113 172.432 33.91C172.058 33.4993 171.55 33.294 170.906 33.294C170.243 33.294 169.716 33.5087 169.324 33.938C168.932 34.358 168.736 34.9693 168.736 35.772V40H167.476V35.66C167.476 34.8947 167.284 34.3113 166.902 33.91C166.528 33.4993 166.02 33.294 165.376 33.294C164.713 33.294 164.186 33.5087 163.794 33.938C163.402 34.358 163.206 34.9693 163.206 35.772V40H161.932V32.328H163.206V33.434C163.458 33.0327 163.794 32.7247 164.214 32.51C164.643 32.2953 165.114 32.188 165.628 32.188C166.272 32.188 166.841 32.3327 167.336 32.622C167.83 32.9113 168.199 33.336 168.442 33.896C168.656 33.3547 169.011 32.9347 169.506 32.636C170 32.3373 170.551 32.188 171.158 32.188Z" fill="black"/>
</svg>
