<svg xmlns="http://www.w3.org/2000/svg" width="30" height="30" viewBox="0 0 30 30" fill="none">
  <circle cx="15" cy="15" r="15" fill="#2F3B4B"/>
  <path d="M18.9323 10.625C18.7057 10.625 18.5547 10.7005 18.4036 10.8516L10.8516 18.4036C10.5495 18.7057 10.5495 19.1589 10.8516 19.4609C11.1536 19.763 11.6068 19.763 11.9089 19.4609L19.4609 11.9089C19.763 11.6068 19.763 11.1536 19.4609 10.8516C19.3099 10.7005 19.1589 10.625 18.9323 10.625Z" fill="white"/>
  <path d="M18.9325 10.6243H12.1356C11.6825 10.6243 11.3804 10.9264 11.3804 11.3796C11.3804 11.8327 11.6825 12.1348 12.1356 12.1348H18.1772V18.1764C18.1772 18.6296 18.4793 18.9316 18.9325 18.9316C19.3856 18.9316 19.6877 18.6296 19.6877 18.1764V11.3796C19.6877 10.9264 19.3856 10.6243 18.9325 10.6243Z" fill="white"/>
</svg>