<svg xmlns="http://www.w3.org/2000/svg" width="31" height="30" viewBox="0 0 31 30" fill="none">
  <circle cx="15.5" cy="15" r="15" fill="#E2BA48"/>
  <path d="M19.4323 10.625C19.2057 10.625 19.0547 10.7005 18.9036 10.8516L11.3516 18.4036C11.0495 18.7057 11.0495 19.1589 11.3516 19.4609C11.6536 19.763 12.1068 19.763 12.4089 19.4609L19.9609 11.9089C20.263 11.6068 20.263 11.1536 19.9609 10.8516C19.8099 10.7005 19.6589 10.625 19.4323 10.625Z" fill="#2F3B4B"/>
  <path d="M19.4325 10.6243H12.6356C12.1825 10.6243 11.8804 10.9264 11.8804 11.3796C11.8804 11.8327 12.1825 12.1348 12.6356 12.1348H18.6772V18.1764C18.6772 18.6296 18.9793 18.9316 19.4325 18.9316C19.8856 18.9316 20.1877 18.6296 20.1877 18.1764V11.3796C20.1877 10.9264 19.8856 10.6243 19.4325 10.6243Z" fill="#2F3B4B"/>
</svg>