<svg xmlns="http://www.w3.org/2000/svg" width="155" height="155" viewBox="0 0 155 155" fill="none">
  <path d="M119.256 94.468C117.764 98.5975 115.636 104.114 113.488 107.885M113.488 107.885C113.241 108.32 110.674 105.583 110.566 105.447C108.2 102.462 106.298 99.2591 104.429 95.9533M113.488 107.885C116.47 84.2131 104.022 63.5504 87.5981 59.1247C85.9703 58.6861 84.1981 58.2104 82.3912 57.8944M82.3912 57.8944C79.5138 57.3913 76.5484 57.2934 73.938 58.3957C71.529 59.4131 68.8194 61.7533 68.5074 64.4715C67.9248 69.5491 74.0059 72.5444 78.247 70.0388C81.974 67.8371 84.1051 61.819 82.3912 57.8944ZM82.3912 57.8944C82.3551 57.8116 82.3172 57.7298 82.2776 57.6489C72.7205 38.1312 47.4345 41.8044 35.5084 54.996" stroke="#FAE5A8" stroke-width="3.02649" stroke-miterlimit="1.5" stroke-linecap="round" stroke-linejoin="round"/>
</svg>