<svg xmlns="http://www.w3.org/2000/svg" width="135" height="24" viewBox="0 0 135 24" fill="none">
  <g clip-path="url(#clip0_103_6736)">
    <path d="M25.2 0H0V24H25.2V0Z" fill="#00B67A"/>
    <path d="M52.5 0H27.3V24H52.5V0Z" fill="#00B67A"/>
    <path d="M79.8 0H54.6V24H79.8V0Z" fill="#00B67A"/>
    <path d="M107.1 0H81.9V24H107.1V0Z" fill="#00B67A"/>
    <path d="M134.4 0H109.2V24H134.4V0Z" fill="#00B67A"/>
    <path d="M12.6 16.1748L16.4325 15.2498L18.0338 19.9498L12.6 16.1748ZM21.42 10.0998H14.6738L12.6 4.0498L10.5263 10.0998H3.78003L9.24003 13.8498L7.16628 19.8998L12.6263 16.1498L15.9863 13.8498L21.42 10.0998Z" fill="white"/>
    <path d="M39.9 16.1748L43.7325 15.2498L45.3337 19.9498L39.9 16.1748ZM48.72 10.0998H41.9737L39.9 4.0498L37.8262 10.0998H31.08L36.54 13.8498L34.4662 19.8998L39.9262 16.1498L43.2862 13.8498L48.72 10.0998Z" fill="white"/>
    <path d="M67.2 16.1748L71.0325 15.2498L72.6338 19.9498L67.2 16.1748ZM76.02 10.0998H69.2738L67.2 4.0498L65.1263 10.0998H58.38L63.84 13.8498L61.7663 19.8998L67.2263 16.1498L70.5863 13.8498L76.02 10.0998Z" fill="white"/>
    <path d="M94.5001 16.1748L98.3326 15.2498L99.9338 19.9498L94.5001 16.1748ZM103.32 10.0998H96.5738L94.5001 4.0498L92.4263 10.0998H85.6801L91.1401 13.8498L89.0663 19.8998L94.5263 16.1498L97.8863 13.8498L103.32 10.0998Z" fill="white"/>
    <path d="M121.8 16.1748L125.632 15.2498L127.234 19.9498L121.8 16.1748ZM130.62 10.0998H123.874L121.8 4.0498L119.726 10.0998H112.98L118.44 13.8498L116.366 19.8998L121.826 16.1498L125.186 13.8498L130.62 10.0998Z" fill="white"/>
  </g>
  <defs>
    <clipPath id="clip0_103_6736">
      <rect width="134.4" height="24" fill="white"/>
    </clipPath>
  </defs>
</svg>