<svg xmlns="http://www.w3.org/2000/svg" width="22" height="22" viewBox="0 0 22 22" fill="none">
  <circle cx="10.5944" cy="10.8981" r="10.4489" fill="#2F3B4B"/>
  <path d="M13.3336 7.8502C13.1758 7.8502 13.0706 7.90281 12.9654 8.00802L7.70464 13.2688C7.49421 13.4792 7.49421 13.7948 7.70464 14.0053C7.91507 14.2157 8.23071 14.2157 8.44114 14.0053L13.7019 8.74453C13.9123 8.5341 13.9123 8.21845 13.7019 8.00802C13.5967 7.90281 13.4914 7.8502 13.3336 7.8502Z" fill="white"/>
  <path d="M13.3337 7.8499H8.59907C8.28343 7.8499 8.073 8.06033 8.073 8.37598C8.073 8.69162 8.28343 8.90205 8.59907 8.90205H12.8077V13.1106C12.8077 13.4263 13.0181 13.6367 13.3337 13.6367C13.6494 13.6367 13.8598 13.4263 13.8598 13.1106V8.37598C13.8598 8.06033 13.6494 7.8499 13.3337 7.8499Z" fill="white"/>
</svg>