<svg xmlns="http://www.w3.org/2000/svg" width="106" height="24" viewBox="0 0 106 24" fill="none">
  <path d="M31.2241 5.71457H40.9295V7.54775H37.1139V17.855H35.0144V7.54775H31.2152V5.71387H31.2234L31.2241 5.71457ZM40.5152 9.06398H42.3094V10.7609H42.3429C42.4025 10.5209 42.5121 10.2894 42.673 10.0663C43.0171 9.58825 43.4828 9.21764 44.0186 8.99551C44.2907 8.88435 44.5805 8.82619 44.8732 8.82398C45.0923 8.82398 45.2539 8.83246 45.3389 8.84163C45.4231 8.8501 45.5073 8.86704 45.6004 8.87551V10.7433C45.463 10.7185 45.3249 10.6985 45.1861 10.6833C45.0484 10.6665 44.9099 10.658 44.7712 10.6579C44.4493 10.6579 44.1453 10.7263 43.8577 10.8555C43.5701 10.9833 43.3242 11.1802 43.1133 11.4294C42.8883 11.708 42.7159 12.0276 42.6052 12.3717C42.4785 12.7487 42.4189 13.1765 42.4189 13.6656V17.8466H40.507V9.06398H40.5152ZM54.3924 17.8557H52.514V16.6303H52.4798C52.2428 17.0765 51.8963 17.428 51.4307 17.6934C50.965 17.9588 50.4912 18.0957 50.0091 18.0957C48.8669 18.0957 48.0369 17.8134 47.5302 17.2388C47.022 16.6649 46.768 15.7995 46.768 14.6426V9.06469H48.6806V14.4541C48.6806 15.2256 48.8244 15.7741 49.1209 16.091C49.4085 16.408 49.8228 16.571 50.3474 16.571C50.7534 16.571 51.0835 16.511 51.354 16.3819C51.6252 16.2534 51.845 16.091 52.0059 15.8765C52.175 15.671 52.2935 15.4141 52.3702 15.1226C52.4455 14.831 52.4798 14.5141 52.4798 14.1717V9.07316H54.3924V17.8557ZM57.6499 15.0372C57.7094 15.6019 57.9204 15.9972 58.2847 16.228C58.6565 16.451 59.0968 16.571 59.6131 16.571C59.7912 16.571 59.9939 16.5534 60.2226 16.528C60.4506 16.5019 60.6705 16.4419 60.8656 16.3656C61.0683 16.288 61.2285 16.168 61.3641 16.0141C61.4915 15.8588 61.5504 15.6626 61.5422 15.4141C61.5411 15.2988 61.5164 15.185 61.4698 15.0802C61.4232 14.9753 61.3557 14.8818 61.2717 14.8056C61.1019 14.6433 60.8909 14.5233 60.628 14.4202C60.3351 14.3156 60.0353 14.2326 59.7309 14.1717C59.3926 14.1033 59.0544 14.0256 58.7079 13.9487C58.3588 13.8708 58.0141 13.7735 57.6752 13.6572C57.3574 13.5522 57.0577 13.3961 56.787 13.1948C56.5234 13.0051 56.3083 12.7522 56.1605 12.4579C56.0002 12.1579 55.9235 11.7894 55.9235 11.344C55.9235 10.864 56.042 10.4701 56.2707 10.144C56.5014 9.82059 56.7992 9.55435 57.1425 9.36469C57.5113 9.1637 57.9078 9.02206 58.3182 8.94469C58.7496 8.86775 59.1646 8.82469 59.5536 8.82469C60.0021 8.82469 60.4335 8.87622 60.8403 8.97081C61.2341 9.05772 61.6094 9.21722 61.9483 9.44163C62.2783 9.65622 62.5488 9.93857 62.7693 10.2816C62.9891 10.624 63.1247 11.044 63.1836 11.5325H61.1868C61.0936 11.0701 60.8903 10.7532 60.5609 10.5986C60.2308 10.4362 59.8501 10.3586 59.4269 10.3586C59.2913 10.3586 59.1304 10.367 58.9448 10.3932C58.766 10.4177 58.59 10.4607 58.4196 10.5216C58.2638 10.5808 58.1224 10.6742 58.0053 10.7955C57.9484 10.8588 57.9042 10.933 57.8752 11.0139C57.8462 11.0948 57.8329 11.1808 57.8361 11.267C57.8361 11.507 57.9204 11.6955 58.0813 11.8409C58.2422 11.9863 58.4538 12.1063 58.7161 12.2094C58.9784 12.304 59.2749 12.3894 59.6131 12.4579C59.9514 12.5263 60.2979 12.6033 60.654 12.6809C61.0005 12.7579 61.3388 12.8609 61.6778 12.9717C62.0161 13.0833 62.3119 13.2379 62.5748 13.4348C62.8371 13.6317 63.0487 13.8717 63.2089 14.1633C63.3699 14.4541 63.4548 14.8226 63.4548 15.251C63.4548 15.7734 63.3363 16.211 63.0987 16.5795C62.8624 16.9395 62.5577 17.2388 62.1852 17.4619C61.7952 17.6934 61.3727 17.8611 60.9327 17.9588C60.4851 18.0603 60.0283 18.1119 59.57 18.1127C59.0568 18.1186 58.545 18.0553 58.0477 17.9242C57.5821 17.7957 57.176 17.6073 56.8377 17.3595C56.5034 17.1091 56.2285 16.7838 56.0338 16.408C55.8393 16.031 55.7373 15.5765 55.7208 15.0541H57.6499V15.0372ZM63.9622 9.0654H65.4091V6.4254H67.3217V9.0654H69.0474V10.5125H67.3224V15.2087C67.3224 15.4134 67.3306 15.5856 67.3478 15.7395C67.3642 15.8856 67.4067 16.0141 67.4662 16.1165C67.531 16.224 67.6292 16.3056 67.7449 16.348C67.8723 16.3995 68.0326 16.4256 68.253 16.4256C68.388 16.4256 68.5235 16.4256 68.6591 16.4165C68.7947 16.408 68.9296 16.391 69.0652 16.3565V17.8557C68.8536 17.8819 68.642 17.8988 68.4475 17.9242C68.2425 17.9488 68.0362 17.9603 67.8298 17.9588C67.3224 17.9588 66.9164 17.9073 66.6109 17.8134C66.3069 17.7188 66.0611 17.5734 65.8919 17.3849C65.7139 17.1965 65.6043 16.9649 65.5365 16.6819C65.4706 16.3635 65.4339 16.0395 65.427 15.7141V10.5287H63.98V9.06328H63.9629L63.9622 9.0654ZM70.4012 9.0654H72.2125V10.2555H72.2467C72.5165 9.74163 72.889 9.38163 73.3711 9.15928C73.8639 8.93344 74.398 8.81934 74.9372 8.82469C75.622 8.82469 76.2143 8.94469 76.7224 9.19316C77.2299 9.43316 77.6531 9.76775 77.9913 10.1955C78.3296 10.624 78.5755 11.1209 78.7446 11.687C78.917 12.2759 79.0026 12.8882 78.9987 13.5033C78.9987 14.0941 78.9226 14.668 78.7699 15.2172C78.6297 15.7469 78.3974 16.246 78.0845 16.6903C77.7769 17.1187 77.3773 17.4678 76.9169 17.7103C76.443 17.9673 75.8932 18.0957 75.2502 18.0957C74.9691 18.0954 74.6886 18.0694 74.412 18.0181C74.1361 17.9668 73.8666 17.8837 73.6087 17.7703C73.3526 17.6601 73.113 17.5128 72.8972 17.3327C72.6843 17.1576 72.4989 16.9498 72.3474 16.7165H72.3131V21.1035H70.4012V9.06398V9.0654ZM77.0861 13.4687C77.0864 13.078 77.0353 12.689 76.934 12.3125C76.8403 11.9557 76.6853 11.6191 76.4766 11.3186C76.2785 11.0327 76.0215 10.7955 75.724 10.624C75.4045 10.446 75.0463 10.3547 74.6832 10.3586C73.8792 10.3586 73.2698 10.6409 72.8637 11.207C72.4576 11.7725 72.2542 12.527 72.2542 13.4687C72.2542 13.9141 72.3056 14.3256 72.4152 14.7026C72.5247 15.0795 72.6774 15.4056 72.8972 15.6795C73.1095 15.9541 73.3629 16.168 73.6594 16.3219C73.9552 16.4849 74.3024 16.5619 74.6914 16.5619C75.1317 16.5619 75.4953 16.468 75.8 16.288C76.0951 16.113 76.3493 15.8732 76.5444 15.5856C76.7389 15.2941 76.8834 14.968 76.9676 14.6002C77.0455 14.2284 77.0852 13.8491 77.0861 13.4687ZM80.462 5.71457H82.3746V7.54846H80.462V5.71457ZM80.462 9.06469H82.3746V17.8557H80.462V9.06469ZM84.0839 5.71457H85.9965V17.8557H84.0839V5.71457ZM91.8602 18.0957C91.1659 18.0957 90.5482 17.9757 90.0072 17.7449C89.4886 17.5257 89.0192 17.1989 88.6281 16.7849C88.2478 16.3626 87.9566 15.8636 87.7728 15.3195C87.5715 14.7189 87.4714 14.0872 87.477 13.4517C87.477 12.7833 87.5783 12.167 87.7728 11.6009C87.9567 11.0571 88.2479 10.5584 88.6281 10.1362C88.9999 9.72469 89.4656 9.40775 90.0072 9.17622C90.5482 8.94469 91.1659 8.82469 91.8602 8.82469C92.5539 8.82469 93.1716 8.94469 93.7133 9.17622C94.2549 9.40775 94.7117 9.73387 95.0924 10.1362C95.4726 10.5582 95.7636 11.057 95.947 11.6009C96.1415 12.1663 96.2429 12.7833 96.2429 13.4517C96.2429 14.1294 96.1415 14.7541 95.947 15.3195C95.7637 15.8637 95.4727 16.3628 95.0924 16.7849C94.7199 17.1965 94.2549 17.5134 93.7133 17.7449C93.1716 17.9757 92.5539 18.0957 91.8602 18.0957ZM91.8602 16.5619C92.2834 16.5619 92.6553 16.468 92.9682 16.288C93.2733 16.113 93.5365 15.8699 93.7386 15.5765C93.9413 15.2856 94.0851 14.951 94.1871 14.5826C94.2803 14.2141 94.3309 13.8372 94.3309 13.4517C94.3309 13.0748 94.2803 12.7063 94.1871 12.3294C94.0999 11.9718 93.9477 11.6346 93.7386 11.3355C93.5361 11.0449 93.2728 10.8049 92.9682 10.6332C92.6553 10.4532 92.2834 10.3586 91.8602 10.3586C91.437 10.3586 91.0645 10.4532 90.7516 10.6332C90.449 10.8075 90.1865 11.0471 89.9819 11.3355C89.7757 11.6364 89.6238 11.973 89.5333 12.3294C89.4396 12.6958 89.3911 13.0729 89.3889 13.4517C89.3889 13.8372 89.4402 14.2141 89.5333 14.5826C89.6265 14.951 89.7785 15.2856 89.9819 15.5765C90.1846 15.868 90.4386 16.108 90.7516 16.288C91.0645 16.4765 91.437 16.5619 91.8602 16.5619ZM96.8016 9.0654H98.2486V6.4254H100.161V9.0654H101.887V10.5125H100.161V15.2087C100.161 15.4134 100.169 15.5856 100.186 15.7395C100.203 15.8856 100.245 16.0141 100.305 16.1165C100.37 16.2241 100.468 16.3058 100.584 16.348C100.711 16.3995 100.871 16.4256 101.092 16.4256C101.227 16.4256 101.362 16.4256 101.498 16.4165C101.633 16.408 101.768 16.391 101.904 16.3565V17.8557C101.692 17.8819 101.481 17.8988 101.286 17.9242C101.081 17.9488 100.875 17.9603 100.669 17.9588C100.161 17.9588 99.7544 17.9073 99.4497 17.8134C99.1456 17.7188 98.8998 17.5734 98.7307 17.3849C98.5533 17.1965 98.4431 16.9649 98.3753 16.6819C98.3095 16.3635 98.2728 16.0395 98.2657 15.7141V10.5287H96.8188V9.06328H96.8016V9.0654Z" fill="white"/>
  <path d="M25.6386 8.44871H16.8727L14.1651 0L11.4478 8.44941L2.68262 8.44024L9.78176 13.6666L7.06591 22.1061L14.1651 16.8882L21.256 22.1061L18.5483 13.6666L25.6386 8.44871Z" fill="#04DA8D"/>
  <path d="M19.1571 15.5778L18.5476 13.667L14.165 16.8886L19.1571 15.5778Z" fill="#126849"/>
</svg>