<svg width="189" height="51" viewBox="0 0 189 51" fill="none" xmlns="http://www.w3.org/2000/svg">
<path d="M24.7231 37.085L35.2486 34.4176L39.6463 47.971L24.7231 37.085ZM48.9462 19.5665H30.4184L24.7231 2.12012L19.0278 19.5665H0.5L15.4953 30.3804L9.79994 47.8268L24.7952 37.0129L34.023 30.3804L48.9462 19.5665Z" fill="#219653"/>
<path d="M67.7372 13.314V35.0454H64.0207V13.314H67.7372ZM74.5581 13.314V16.2991H57.2595V13.314H74.5581ZM79.6029 21.9707V35.0454H76.0059V18.8961H79.4387L79.6029 21.9707ZM84.5432 18.7916L84.5133 22.1349C84.2944 22.0951 84.0556 22.0653 83.7969 22.0454C83.5482 22.0255 83.2994 22.0155 83.0507 22.0155C82.4337 22.0155 81.8914 22.1051 81.4238 22.2842C80.9561 22.4533 80.5631 22.7021 80.2447 23.0305C79.9362 23.3489 79.6974 23.7369 79.5283 24.1946C79.3591 24.6523 79.2596 25.1648 79.2297 25.732L78.4088 25.7917C78.4088 24.7767 78.5084 23.8364 78.7074 22.9707C78.9064 22.1051 79.2049 21.3439 79.6029 20.6872C80.0108 20.0304 80.5183 19.518 81.1253 19.1498C81.7422 18.7817 82.4536 18.5976 83.2596 18.5976C83.4785 18.5976 83.7123 18.6175 83.9611 18.6573C84.2198 18.6971 84.4138 18.7419 84.5432 18.7916ZM96.5134 31.2394V18.8961H100.125V35.0454H96.7223L96.5134 31.2394ZM97.0208 27.8812L98.2298 27.8514C98.2298 28.9359 98.1104 29.9359 97.8716 30.8514C97.6328 31.7568 97.2646 32.5479 96.7671 33.2245C96.2696 33.8912 95.6328 34.4136 94.8567 34.7917C94.0805 35.1598 93.1502 35.3439 92.0656 35.3439C91.2795 35.3439 90.5581 35.2295 89.9014 35.0006C89.2447 34.7718 88.6775 34.4185 88.1999 33.9409C87.7323 33.4633 87.3691 32.8414 87.1104 32.0753C86.8517 31.3091 86.7223 30.3937 86.7223 29.329V18.8961H90.3193V29.3588C90.3193 29.9459 90.389 30.4384 90.5283 30.8364C90.6676 31.2245 90.8566 31.5379 91.0954 31.7767C91.3343 32.0156 91.6129 32.1847 91.9313 32.2842C92.2497 32.3837 92.588 32.4335 92.9462 32.4335C93.9711 32.4335 94.7771 32.2345 95.3641 31.8364C95.9611 31.4285 96.384 30.8812 96.6328 30.1947C96.8915 29.5081 97.0208 28.7369 97.0208 27.8812ZM112.872 30.6723C112.872 30.3141 112.782 29.9907 112.603 29.7021C112.424 29.4036 112.081 29.1349 111.573 28.8961C111.076 28.6573 110.339 28.4384 109.364 28.2394C108.508 28.0504 107.722 27.8265 107.006 27.5678C106.299 27.2991 105.693 26.9757 105.185 26.5976C104.678 26.2195 104.285 25.7718 104.006 25.2543C103.727 24.7369 103.588 24.1399 103.588 23.4633C103.588 22.8066 103.732 22.1847 104.021 21.5976C104.309 21.0105 104.722 20.4931 105.26 20.0454C105.797 19.5976 106.449 19.2444 107.215 18.9857C107.991 18.727 108.857 18.5976 109.812 18.5976C111.165 18.5976 112.324 18.8265 113.29 19.2842C114.265 19.7319 115.011 20.3439 115.528 21.12C116.046 21.8862 116.304 22.7518 116.304 23.717H112.707C112.707 23.2892 112.598 22.8911 112.379 22.523C112.17 22.1449 111.852 21.8414 111.424 21.6125C110.996 21.3737 110.459 21.2543 109.812 21.2543C109.195 21.2543 108.683 21.3538 108.275 21.5528C107.877 21.7419 107.578 21.9906 107.379 22.2991C107.19 22.6076 107.095 22.9459 107.095 23.314C107.095 23.5827 107.145 23.8265 107.245 24.0454C107.354 24.2543 107.533 24.4484 107.782 24.6275C108.031 24.7966 108.369 24.9558 108.797 25.1051C109.235 25.2543 109.782 25.3986 110.439 25.5379C111.673 25.7966 112.732 26.13 113.618 26.5379C114.513 26.9359 115.2 27.4533 115.678 28.0902C116.155 28.717 116.394 29.5131 116.394 30.4782C116.394 31.1947 116.24 31.8514 115.931 32.4484C115.633 33.0355 115.195 33.5479 114.618 33.9857C114.041 34.4136 113.349 34.7469 112.543 34.9857C111.747 35.2245 110.852 35.3439 109.857 35.3439C108.394 35.3439 107.155 35.0852 106.14 34.5678C105.125 34.0404 104.354 33.3688 103.827 32.5529C103.309 31.727 103.051 30.8713 103.051 29.9857H106.528C106.568 30.6524 106.752 31.1847 107.081 31.5827C107.419 31.9708 107.837 32.2544 108.334 32.4335C108.842 32.6026 109.364 32.6872 109.901 32.6872C110.548 32.6872 111.091 32.6026 111.528 32.4335C111.966 32.2544 112.299 32.0156 112.528 31.717C112.757 31.4086 112.872 31.0603 112.872 30.6723ZM126.946 18.8961V21.523H117.842V18.8961H126.946ZM120.469 14.9409H124.066V30.5827C124.066 31.0802 124.135 31.4633 124.275 31.732C124.424 31.9907 124.628 32.1648 124.887 32.2544C125.145 32.3439 125.449 32.3887 125.797 32.3887C126.046 32.3887 126.285 32.3738 126.513 32.3439C126.742 32.3141 126.926 32.2842 127.066 32.2544L127.081 35.0006C126.782 35.0902 126.434 35.1698 126.036 35.2394C125.648 35.3091 125.2 35.3439 124.693 35.3439C123.867 35.3439 123.135 35.1996 122.499 34.9111C121.862 34.6126 121.364 34.13 121.006 33.4633C120.648 32.7966 120.469 31.9111 120.469 30.8066V14.9409ZM133.334 22.0006V41.2544H129.737V18.8961H133.051L133.334 22.0006ZM143.857 26.8215V27.1349C143.857 28.3091 143.717 29.3986 143.439 30.4036C143.17 31.3986 142.767 32.2693 142.23 33.0156C141.703 33.7519 141.051 34.324 140.275 34.732C139.499 35.1399 138.603 35.3439 137.588 35.3439C136.583 35.3439 135.703 35.1598 134.946 34.7917C134.2 34.4136 133.568 33.8812 133.051 33.1947C132.533 32.5081 132.115 31.7021 131.797 30.7767C131.489 29.8414 131.27 28.8165 131.14 27.7021V26.4931C131.27 25.3091 131.489 24.2344 131.797 23.2693C132.115 22.3041 132.533 21.4732 133.051 20.7767C133.568 20.0802 134.2 19.5429 134.946 19.1648C135.693 18.7867 136.563 18.5976 137.558 18.5976C138.573 18.5976 139.474 18.7966 140.26 19.1946C141.046 19.5827 141.708 20.1399 142.245 20.8663C142.782 21.5827 143.185 22.4484 143.454 23.4633C143.722 24.4683 143.857 25.5877 143.857 26.8215ZM140.26 27.1349V26.8215C140.26 26.0752 140.19 25.3837 140.051 24.7469C139.912 24.1001 139.693 23.5329 139.394 23.0454C139.096 22.5578 138.713 22.1797 138.245 21.911C137.787 21.6324 137.235 21.4931 136.588 21.4931C135.951 21.4931 135.404 21.6026 134.946 21.8215C134.489 22.0304 134.106 22.324 133.797 22.7021C133.489 23.0802 133.25 23.523 133.081 24.0305C132.911 24.528 132.792 25.0703 132.722 25.6573V28.5529C132.842 29.2693 133.046 29.926 133.334 30.523C133.623 31.12 134.031 31.5976 134.558 31.9558C135.096 32.3041 135.782 32.4782 136.618 32.4782C137.265 32.4782 137.817 32.3389 138.275 32.0603C138.732 31.7817 139.106 31.3986 139.394 30.9111C139.693 30.4136 139.912 29.8414 140.051 29.1946C140.19 28.5479 140.26 27.8613 140.26 27.1349ZM150.767 18.8961V35.0454H147.155V18.8961H150.767ZM146.917 14.6573C146.917 14.11 147.096 13.6573 147.454 13.2991C147.822 12.9309 148.329 12.7468 148.976 12.7468C149.613 12.7468 150.116 12.9309 150.484 13.2991C150.852 13.6573 151.036 14.11 151.036 14.6573C151.036 15.1946 150.852 15.6424 150.484 16.0006C150.116 16.3588 149.613 16.5379 148.976 16.5379C148.329 16.5379 147.822 16.3588 147.454 16.0006C147.096 15.6424 146.917 15.1946 146.917 14.6573ZM158.558 12.12V35.0454H154.946V12.12H158.558ZM161.812 27.1499V26.8066C161.812 25.6424 161.981 24.5628 162.32 23.5678C162.658 22.5628 163.145 21.6921 163.782 20.9558C164.429 20.2095 165.215 19.6324 166.14 19.2245C167.076 18.8066 168.13 18.5976 169.305 18.5976C170.489 18.5976 171.543 18.8066 172.469 19.2245C173.404 19.6324 174.195 20.2095 174.842 20.9558C175.489 21.6921 175.981 22.5628 176.32 23.5678C176.658 24.5628 176.827 25.6424 176.827 26.8066V27.1499C176.827 28.314 176.658 29.3937 176.32 30.3887C175.981 31.3837 175.489 32.2544 174.842 33.0006C174.195 33.7369 173.409 34.3141 172.484 34.732C171.558 35.1399 170.509 35.3439 169.334 35.3439C168.15 35.3439 167.091 35.1399 166.155 34.732C165.23 34.3141 164.444 33.7369 163.797 33.0006C163.15 32.2544 162.658 31.3837 162.32 30.3887C161.981 29.3937 161.812 28.314 161.812 27.1499ZM165.409 26.8066V27.1499C165.409 27.8762 165.484 28.5628 165.633 29.2096C165.782 29.8563 166.016 30.4235 166.334 30.9111C166.653 31.3986 167.061 31.7817 167.558 32.0603C168.056 32.3389 168.648 32.4782 169.334 32.4782C170.001 32.4782 170.578 32.3389 171.066 32.0603C171.563 31.7817 171.971 31.3986 172.29 30.9111C172.608 30.4235 172.842 29.8563 172.991 29.2096C173.15 28.5628 173.23 27.8762 173.23 27.1499V26.8066C173.23 26.0902 173.15 25.4135 172.991 24.7767C172.842 24.13 172.603 23.5578 172.275 23.0603C171.956 22.5628 171.548 22.1747 171.051 21.8961C170.563 21.6076 169.981 21.4633 169.305 21.4633C168.628 21.4633 168.041 21.6076 167.543 21.8961C167.056 22.1747 166.653 22.5628 166.334 23.0603C166.016 23.5578 165.782 24.13 165.633 24.7767C165.484 25.4135 165.409 26.0902 165.409 26.8066ZM187.245 18.8961V21.523H178.14V18.8961H187.245ZM180.767 14.9409H184.364V30.5827C184.364 31.0802 184.434 31.4633 184.573 31.732C184.723 31.9907 184.927 32.1648 185.185 32.2544C185.444 32.3439 185.747 32.3887 186.096 32.3887C186.344 32.3887 186.583 32.3738 186.812 32.3439C187.041 32.3141 187.225 32.2842 187.364 32.2544L187.379 35.0006C187.081 35.0902 186.733 35.1698 186.335 35.2394C185.946 35.3091 185.499 35.3439 184.991 35.3439C184.165 35.3439 183.434 35.1996 182.797 34.9111C182.16 34.6126 181.663 34.13 181.305 33.4633C180.946 32.7966 180.767 31.9111 180.767 30.8066V14.9409Z" fill="black"/>
</svg>
